<?xml version="1.0" encoding="UTF-8"?>
<svg width="400" height="400" viewBox="0 0 400 400" fill="none" xmlns="http://www.w3.org/2000/svg">
  <!-- Person -->
  <path d="M150 120 C150 100 170 85 190 85 C210 85 230 100 230 120 C230 140 210 155 190 155 C170 155 150 140 150 120" fill="#4834d4"/>
  <path d="M140 180 L240 180 L240 280 C240 300 220 320 190 320 C160 320 140 300 140 280 Z" fill="#4834d4"/>
  
  <!-- Screen -->
  <rect x="260" y="100" width="120" height="80" rx="4" fill="#e1e1e1"/>
  <path d="M270 120 L360 120" stroke="#4834d4" stroke-width="3"/>
  <path d="M270 140 L340 140" stroke="#4834d4" stroke-width="3"/>
  <path d="M270 160 L350 160" stroke="#4834d4" stroke-width="3"/>
  
  <!-- Boxes -->
  <rect x="280" y="200" width="40" height="40" fill="#4834d4" opacity="0.8"/>
  <rect x="300" y="220" width="40" height="40" fill="#4834d4" opacity="0.6"/>
  <rect x="320" y="240" width="40" height="40" fill="#4834d4" opacity="0.4"/>
</svg> 